:SAMPLES-PER-SECOND 30
:FULLY-SPECIFIED
:DEGREES
668
root  -0.676256 38.8093 35.9479 141.992 -83.7875 -148.134
RightUpLeg  -13.0898 -15.1225 11.7868
RightLeg  24.8087 -6.42019 -2.01832
RightFoot  -8.30255 0.314284 -13.8496
RightToes  -4.65663e-010 0 -3.6325e-017
Spine  4.67614 -4.36544 11.0782
Spine1  6.32308 -3.80036 2.409
HEad  -9.36589 -11.2277 0.227027
LeftShoulder1  8.82151 -12.4345 -48.3141
LeftArm  0.950242 5.97099 -21.1689
LeftForeArm  23.8864 -19.1084 -4.39626
LeftHand  -0.244104 0.0205437 5.32207
RightShoulder  5.73569 9.08752 39.444
RightArm  -7.25189 -18.0323 32.3986
RightForeArm  10.338 13.5213 5.74828
RightHand  -0.895066 2.34191 -13.5963
LeftUpLeg  -3.45275 6.54334 10.1242
LeftLeg  62.2028 1.4409 3.57535
LeftFoot  14.1551 1.3815 -6.49765
LeftToes  -7.27628e-011 -1.6005e-012 -1.37987e-011
669
root  -2.13785 39.1262 35.7796 157.739 -81.5057 -163.942
RightUpLeg  -9.43534 -12.5826 10.2958
RightLeg  23.5014 -6.08383 -1.11217
RightFoot  -9.76404 0.114676 -13.0321
RightToes  -4.65663e-010 0 -3.6325e-017
Spine  4.65612 -3.43252 10.8404
Spine1  6.07338 -2.65361 1.50601
HEad  -8.75981 -11.1164 0.375462
LeftShoulder1  8.81115 -12.3761 -48.4348
LeftArm  -2.22498 8.73139 -22.325
LeftForeArm  27.3035 -14.6624 -5.70698
LeftHand  -0.244104 0.0205437 5.32207
RightShoulder  5.79452 9.1816 39.5641
RightArm  -2.98459 -15.2328 33.3803
RightForeArm  8.15773 16.6985 5.43232
RightHand  -0.88853 2.16306 -13.8054
LeftUpLeg  -8.20143 6.16014 9.15037
LeftLeg  63.1931 2.29738 5.55635
LeftFoot  9.35062 0.994422 -5.75553
LeftToes  -7.27628e-011 -1.6005e-012 -1.37987e-011
670
root  -3.56877 39.4056 35.6028 167.698 -78.4941 -173.784
RightUpLeg  -6.03132 -10.49 8.54212
RightLeg  21.9438 -4.96495 0.315216
RightFoot  -10.9287 -0.0286159 -12.5578
RightToes  -4.65663e-010 0 -3.6325e-017
Spine  4.5422 -2.50934 10.4172
Spine1  5.822 -1.57656 0.688475
HEad  -8.30143 -10.4985 0.273727
LeftShoulder1  8.75159 -12.2566 -48.4717
LeftArm  -5.18309 12.4488 -23.5597
LeftForeArm  28.755 -11.5582 -6.1808
LeftHand  -0.244104 0.0205437 5.32207
RightShoulder  5.75602 9.17492 39.2976
RightArm  1.61158 -12.5013 34.5148
RightForeArm  5.5428 20.8369 4.88346
RightHand  -0.859524 1.80362 -14.0022
LeftUpLeg  -12.3393 6.05244 8.03106
LeftLeg  61.002 3.2481 6.9009
LeftFoot  6.21242 0.633283 -4.33774
LeftToes  -7.27628e-011 -1.6005e-012 -1.37987e-011
671
root  -4.99355 39.6907 35.4011 173.311 -75.3016 -179.197
RightUpLeg  -2.59507 -8.57403 6.74479
RightLeg  19.7382 -3.59115 1.83085
RightFoot  -11.6938 -0.117453 -12.5318
RightToes  -4.65663e-010 0 -3.6325e-017
Spine  4.16694 -1.65861 9.98355
Spine1  5.66606 -0.643739 -0.321525
HEad  -7.99382 -9.59237 0.0890298
LeftShoulder1  8.74993 -12.2319 -48.539
LeftArm  -6.59188 16.6149 -24.7315
LeftForeArm  28.6946 -9.69593 -6.15608
LeftHand  -0.244104 0.0205437 5.32207
RightShoulder  5.71416 9.11519 39.1865
RightArm  3.81837 -10.1625 35.1101
RightForeArm  4.80658 25.8628 5.22963
RightHand  -0.81483 1.3896 -14.0642
LeftUpLeg  -15.5643 5.89992 7.05085
LeftLeg  55.8136 4.32344 7.31293
LeftFoot  3.54297 0.364528 -2.97165
LeftToes  -7.27628e-011 -1.6005e-012 -1.37987e-011
672
root  -6.39188 39.8899 35.187 176.652 -72.0639 177.791
RightUpLeg  0.453224 -7.33161 5.19239
RightLeg  17.7404 -1.35564 2.8779
RightFoot  -12.6552 -0.225368 -12.2399
RightToes  -4.65663e-010 0 -3.6325e-017
Spine  3.5637 -0.921814 9.56562
Spine1  5.57697 0.133944 -1.37877
HEad  -7.67923 -8.66342 -0.168816
LeftShoulder1  8.79395 -12.2681 -48.6723
LeftArm  -7.25161 20.8744 -25.8947
LeftForeArm  28.6319 -8.59641 -5.99017
LeftHand  -0.244104 0.0205437 5.32207
RightShoulder  5.77722 9.17604 39.4526
RightArm  4.57754 -8.07787 35.0168
RightForeArm  5.72339 31.0015 6.47699
RightHand  -0.772583 1.03747 -14.0488
LeftUpLeg  -17.7631 6.00405 6.4976
LeftLeg  47.7166 5.13221 6.45216
LeftFoot  1.18278 0.333143 -3.11819
LeftToes  -7.27628e-011 -1.6005e-012 -1.37987e-011
